#!OML:ASF G:\JayActor3\Patient Classification 1\Patient 1\Session 6\male.ASF
:FULLY-SPECIFIED
:DEGREES
4705
root -1.09478 15.2322 -2.58306 823.498 -88.5307 -811.455
lowerback 35.4202 1.48905 2.17258
upperback 16.8656 0.202899 -1.45807
thorax 0.7075 -0.525053 -2.73358
lowerneck 8.3564 11.0237 8.44621
upperneck -33.413 11.819 -19.6617
head -9.94297 6.64289 -9.77787
rclavicle 8.74653e-015 2.78299e-014
rhumerus -18.2655 -4.75477 -83.4226
rradius 67.3204
rwrist -2.61728
rhand -24.5032 -5.68634
rfingers 7.12502
rthumb 1.99133 -35.6568
lclavicle 8.74653e-015 2.78299e-014
lhumerus -15.612 -13.2439 72.5221
lradius 76.4721
lwrist 14.8216
lhand -15.2565 13.2734
lfingers 7.12502
lthumb 10.9174 42.9696
rfemur -53.1256 -9.89107 23.4326
rtibia 64.5765
rfoot -22.6729 -14.5089
rtoes -4.82224
lfemur -51.36 10.4022 -21.8939
ltibia 55.863
lfoot -16.9167 3.5609
ltoes -0.0558067
4706
root -1.08877 15.2289 -2.5963 822.79 -88.5854 -810.844
lowerback 35.4807 1.4482 2.23412
upperback 16.9 0.164441 -1.43614
thorax 0.724207 -0.543613 -2.73167
lowerneck 8.37536 11.0309 8.45153
upperneck -33.3824 11.8312 -19.6802
head -9.931 6.65198 -9.78354
rclavicle -1.78906e-014 -1.0635e-014
rhumerus -18.1372 -4.65122 -83.3726
rradius 67.256
rwrist -2.63006
rhand -24.5262 -5.75729
rfingers 7.12502
rthumb 1.96914 -35.7279
lclavicle -1.78906e-014 -1.0635e-014
lhumerus -15.667 -13.2261 72.5706
lradius 76.3281
lwrist 14.7838
lhand -15.2081 13.2934
lfingers 7.12502
lthumb 10.964 42.9871
rfemur -53.0651 -9.8449 23.3915
rtibia 64.6181
rfoot -22.6984 -14.5821
rtoes -4.83846
lfemur -51.2857 10.3868 -21.8824
ltibia 55.8856
lfoot -16.8979 3.59485
ltoes -0.135082
4707
root -1.08282 15.2258 -2.60928 821.476 -88.6474 -809.614
lowerback 35.5117 1.40043 2.29125
upperback 16.9341 0.117935 -1.40934
thorax 0.749916 -0.565944 -2.72009
lowerneck 8.38665 11.0395 8.45779
upperneck -33.3497 11.8462 -19.6933
head -9.91672 6.66124 -9.78634
rclavicle -2.127e-014 -1.07344e-014
rhumerus -18.0171 -4.55949 -83.324
rradius 67.1862
rwrist -2.64183
rhand -24.561 -5.79316
rfingers 7.12502
rthumb 1.9356 -35.7641
lclavicle -2.127e-014 -1.07344e-014
lhumerus -15.7293 -13.2193 72.6377
lradius 76.1545
lwrist 14.7233
lhand -15.1543 13.2897
lfingers 7.12502
lthumb 11.0159 42.9807
rfemur -53.0167 -9.84423 23.3633
rtibia 64.6551
rfoot -22.7378 -14.6523
rtoes -4.83182
lfemur -51.2268 10.3686 -21.886
ltibia 55.9027
lfoot -16.8698 3.612
ltoes -0.20616
4708
root -1.07682 15.2228 -2.62248 819.616 -88.7059 -807.82
lowerback 35.5079 1.35097 2.34571
upperback 16.9657 0.0707033 -1.37532
thorax 0.784515 -0.588329 -2.6995
lowerneck 8.38368 11.05 8.46326
upperneck -33.3117 11.8657 -19.6964
head -9.8979 6.67097 -9.78326
rclavicle -9.93923e-016 1.07344e-014
rhumerus -17.9116 -4.48519 -83.2759
rradius 67.1121
rwrist -2.64648
rhand -24.5974 -5.81017
rfingers 7.12502
rthumb 1.90037 -35.7815
lclavicle -9.93923e-016 1.07344e-014
lhumerus -15.7982 -13.2337 72.7234
lradius 75.9566
lwrist 14.648
lhand -15.1034 13.2848
lfingers 7.12502
lthumb 11.0651 42.9731
rfemur -52.985 -9.87036 23.3558
rtibia 64.6844
rfoot -22.7932 -14.7187
rtoes -4.77477
lfemur -51.1929 10.3531 -21.8931
ltibia 55.916
lfoot -16.8307 3.61022
ltoes -0.251922
4709
root -1.07075 15.2199 -2.6361 817.395 -88.7563 -805.645
lowerback 35.4732 1.30354 2.39315
upperback 16.9927 0.0260203 -1.33365
thorax 0.824553 -0.609546 -2.66816
lowerneck 8.37434 11.0648 8.46552
upperneck -33.2788 11.8935 -19.6864
head -9.8799 6.68271 -9.77492
rclavicle 3.3197e-014 5.46658e-015
rhumerus -17.8241 -4.42891 -83.2285
rradius 67.0366
rwrist -2.62827
rhand -24.6252 -5.81976
rfingers 7.12502
rthumb 1.87358 -35.7913
lclavicle 3.3197e-014 5.46658e-015
lhumerus -15.8758 -13.2692 72.8222
lradius 75.7448
lwrist 14.5754
lhand -15.0555 13.2825
lfingers 7.12502
lthumb 11.1112 42.9683
rfemur -52.9714 -9.91 23.3684
rtibia 64.7077
rfoot -22.8597 -14.7804
rtoes -4.68897
lfemur -51.1843 10.3449 -21.8993
ltibia 55.9261
lfoot -16.7815 3.59314
ltoes -0.282106
4710
root -1.06452 15.217 -2.64976 814.997 -88.7955 -803.276
lowerback 35.4177 1.25748 2.44318
upperback 17.0134 -0.01436 -1.28774
thorax 0.864994 -0.628066 -2.63513
lowerneck 8.36144 11.0826 8.46619
upperneck -33.2579 11.9272 -19.6652
head -9.86589 6.69526 -9.76346
rclavicle 2.76311e-014 1.82882e-014
rhumerus -17.7581 -4.39803 -83.1827
rradius 66.9626
rwrist -2.57959
rhand -24.6271 -5.83253
rfingers 7.12502
rthumb 1.87171 -35.8041
lclavicle 2.76311e-014 1.82882e-014
lhumerus -15.9592 -13.3268 72.932
lradius 75.5286
lwrist 14.5081
lhand -14.9957 13.2938
lfingers 7.12502
lthumb 11.1689 42.9766
rfemur -52.9742 -9.95594 23.3973
rtibia 64.7256
rfoot -22.9273 -14.8328
rtoes -4.58393
lfemur -51.1983 10.3448 -21.9015
ltibia 55.9351
lfoot -16.7274 3.56176
ltoes -0.284378
4711
root -1.05815 15.2143 -2.66346 812.729 -88.8261 -801.027
lowerback 35.354 1.21448 2.49282
upperback 17.025 -0.0494418 -1.24067
thorax 0.898547 -0.643634 -2.60222
lowerneck 8.35164 11.1041 8.46493
upperneck -33.2564 11.9666 -19.636
head -9.85963 6.70892 -9.75152
rclavicle 2.14687e-014 1.77912e-014
rhumerus -17.719 -4.386 -83.141
rradius 66.8943
rwrist -2.50501
rhand -24.6284 -5.84197
rfingers 7.12502
rthumb 1.87043 -35.8135
lclavicle 2.14687e-014 1.77912e-014
lhumerus -16.0508 -13.4044 73.0456
lradius 75.318
lwrist 14.4605
lhand -14.9004 13.3292
lfingers 7.12502
lthumb 11.2608 43.0069
rfemur -52.9897 -10.0013 23.4358
rtibia 64.7408
rfoot -22.9931 -14.8701
rtoes -4.44968
lfemur -51.2258 10.3557 -21.9006
ltibia 55.9419
lfoot -16.6707 3.52102
ltoes -0.275547
4712
root -1.05185 15.2119 -2.67693 810.927 -88.8506 -799.238
lowerback 35.2903 1.17579 2.54283
upperback 17.0289 -0.0782189 -1.19487
thorax 0.923935 -0.655828 -2.57262
lowerneck 8.34555 11.1294 8.46375
upperneck -33.2768 12.0103 -19.6059
head -9.86149 6.72369 -9.74238
rclavicle 3.1408e-014 6.71892e-014
rhumerus -17.7055 -4.39384 -83.1043
rradius 66.8337
rwrist -2.39588
rhand -24.621 -5.84987
rfingers 7.12502
rthumb 1.87763 -35.8214
lclavicle 3.1408e-014 6.71892e-014
lhumerus -16.1454 -13.4966 73.1607
lradius 75.1121
lwrist 14.4338
lhand -14.7627 13.3676
lfingers 7.12502
lthumb 11.3936 43.0381
rfemur -53.0113 -10.0443 23.4804
rtibia 64.7544
rfoot -23.0519 -14.8914
rtoes -4.31107
lfemur -51.2576 10.3809 -21.8971
ltibia 55.9468
lfoot -16.6167 3.47555
ltoes -0.267828
4713
root -1.04585 15.2099 -2.68998 809.65 -88.89 -797.973
lowerback 35.2339 1.14308 2.58325
upperback 17.0241 -0.101807 -1.1576
thorax 0.937488 -0.66549 -2.54828
lowerneck 8.35077 11.1554 8.46884
upperneck -33.3206 12.053 -19.5836
head -9.87307 6.73767 -9.7411
rclavicle 2.64384e-014 2.5345e-015
rhumerus -17.7215 -4.4234 -83.0737
rradius 66.7833
rwrist -2.25759
rhand -24.617 -5.84361
rfingers 7.12502
rthumb 1.88151 -35.8151
lclavicle 2.64384e-014 2.5345e-015
lhumerus -16.2434 -13.6051 73.2717
lradius 74.9143
lwrist 14.4242
lhand -14.5707 13.3922
lfingers 7.12502
lthumb 11.5787 43.0523
rfemur -53.0341 -10.0898 23.5083
rtibia 64.7685
rfoot -23.1051 -14.8925
rtoes -4.16011
lfemur -51.2814 10.4164 -21.9116
ltibia 55.9459
lfoot -16.5679 3.42961
ltoes -0.26638
4714
root -1.04005 15.208 -2.70259 809.15 -88.9382 -797.483
lowerback 35.1867 1.11691 2.62111
upperback 17.0105 -0.117525 -1.12851
thorax 0.938656 -0.670937 -2.53326
lowerneck 8.36232 11.1813 8.48002
upperneck -33.3799 12.0935 -19.57
head -9.89053 6.75057 -9.74644
rclavicle -9.93923e-017 3.03147e-014
rhumerus -17.7654 -4.47054 -83.0506
rradius 66.7435
rwrist -2.10435
rhand -24.6343 -5.82213
rfingers 7.12502
rthumb 1.86479 -35.7937
lclavicle -9.93923e-017 3.03147e-014
lhumerus -16.3409 -13.7321 73.3774
lradius 74.7246
lwrist 14.4381
lhand -14.3388 13.396
lfingers 7.12502
lthumb 11.8024 43.0435
rfemur -53.059 -10.13 23.528
rtibia 64.7827
rfoot -23.1501 -14.8811
rtoes -4.01127
lfemur -51.2996 10.4648 -21.9345
ltibia 55.9408
lfoot -16.5225 3.38521
ltoes -0.274458
4715
root -1.03444 15.2066 -2.7145 809.355 -88.9987 -797.701
lowerback 35.1512 1.09434 2.65909
upperback 16.9884 -0.128221 -1.10943
thorax 0.926561 -0.673315 -2.53001
lowerneck 8.3799 11.2055 8.49861
upperneck -33.4463 12.1297 -19.5672
head -9.91079 6.76187 -9.75831
rclavicle -2.78299e-015 1.20762e-014
rhumerus -17.837 -4.5334 -83.0353
rradius 66.7174
rwrist -1.94403
rhand -24.6686 -5.78958
rfingers 7.12502
rthumb 1.83161 -35.7615
lclavicle -2.78299e-015 1.20762e-014
lhumerus -16.4405 -13.8741 73.4788
lradius 74.5456
lwrist 14.4641
lhand -14.0945 13.3688
lfingers 7.12502
lthumb 12.038 43.0026
rfemur -53.0822 -10.167 23.5341
rtibia 64.7968
rfoot -23.1876 -14.8615
rtoes -3.87529
lfemur -51.3078 10.5208 -21.969
ltibia 55.9305
lfoot -16.4803 3.34404
ltoes -0.296494
4716
root -1.02892 15.2055 -2.72573 810.485 -89.0638 -798.845
lowerback 35.1221 1.0743 2.70181
upperback 16.961 -0.134283 -1.09815
thorax 0.906842 -0.672696 -2.53863
lowerneck 8.39511 11.2292 8.51766
upperneck -33.5104 12.1625 -19.5737
head -9.92932 6.77271 -9.77308
rclavicle 1.8487e-014 4.53726e-014
rhumerus -17.9268 -4.60533 -83.0277
rradius 66.7011
rwrist -1.78929
rhand -24.7061 -5.75612
rfingers 7.12502
rthumb 1.79545 -35.7283
lclavicle 1.8487e-014 4.53726e-014
lhumerus -16.5383 -14.0291 73.5715
lradius 74.3804
lwrist 14.5057
lhand -13.8654 13.3092
lfingers 7.12502
lthumb 12.2589 42.9299
rfemur -53.1022 -10.1933 23.5339
rtibia 64.8089
rfoot -23.2213 -14.8362
rtoes -3.73603
lfemur -51.3098 10.5855 -22.0062
ltibia 55.9185
lfoot -16.4409 3.30541
ltoes -0.322293
4717
root -1.02343 15.2044 -2.73634 812.781 -89.1307 -801.154
lowerback 35.0925 1.05722 2.74749
upperback 16.9309 -0.135962 -1.09363
thorax 0.884555 -0.669345 -2.55715
lowerneck 8.40684 11.2524 8.53794
upperneck -33.5674 12.1922 -19.59
head -9.94394 6.78349 -9.7903
rclavicle 3.55825e-014 1.19768e-014
rhumerus -18.0266 -4.68126 -83.0293
rradius 66.6931
rwrist -1.65359
rhand -24.7341 -5.73716
rfingers 7.12502
rthumb 1.76834 -35.7096
lclavicle 3.55825e-014 1.19768e-014
lhumerus -16.6313 -14.192 73.6519
lradius 74.2304
lwrist 14.5666
lhand -13.66 13.2252
lfingers 7.12502
lthumb 12.457 42.834
rfemur -53.1231 -10.205 23.5299
rtibia 64.8197
rfoot -23.2502 -14.8124
rtoes -3.60991
lfemur -51.31 10.6555 -22.0432
ltibia 55.9065
lfoot -16.4048 3.27369
ltoes -0.351839
4718
root -1.01775 15.2032 -2.7462 816.455 -89.1945 -804.839
lowerback 35.0575 1.0415 2.79489
upperback 16.9012 -0.135943 -1.09259
thorax 0.86473 -0.664889 -2.58078
lowerneck 8.4055 11.278 8.5504
upperneck -33.6108 12.2215 -19.6138
head -9.95095 6.79617 -9.80599
rclavicle -3.28989e-014 -2.70844e-014
rhumerus -18.1225 -4.75106 -83.0361
rradius 66.6854
rwrist -1.54945
rhand -24.7459 -5.73328
rfingers 7.12502
rthumb 1.75699 -35.7058
lclavicle -3.28989e-014 -2.70844e-014
lhumerus -16.7165 -14.3477 73.7236
lradius 74.1031
lwrist 14.6337
lhand -13.4736 13.172
lfingers 7.12502
lthumb 12.6367 42.7697
rfemur -53.1491 -10.2017 23.5253
rtibia 64.8302
rfoot -23.2743 -14.7913
rtoes -3.50058
lfemur -51.3147 10.7274 -22.0774
ltibia 55.8974
lfoot -16.3718 3.25149
ltoes -0.390081
4719
root -1.01187 15.2018 -2.75549 821.751 -89.2498 -810.142
lowerback 35.0166 1.02749 2.84224
upperback 16.8721 -0.134314 -1.09448
thorax 0.847535 -0.659529 -2.60801
lowerneck 8.4005 11.3047 8.56431
upperneck -33.6413 12.2494 -19.6522
head -9.951 6.81047 -9.82517
rclavicle 7.15625e-015 1.70955e-014
rhumerus -18.2107 -4.80972 -83.0487
rradius 66.6742
rwrist -1.48104
rhand -24.7532 -5.74002
rfingers 7.12502
rthumb 1.74996 -35.7126
lclavicle 7.15625e-015 1.70955e-014
lhumerus -16.7948 -14.4932 73.7795
lradius 74.0006
lwrist 14.7126
lhand -13.2964 13.1652
lfingers 7.12502
lthumb 12.8075 42.7523
rfemur -53.1799 -10.182 23.5223
rtibia 64.8412
rfoot -23.2948 -14.7763
rtoes -3.40376
lfemur -51.3225 10.7996 -22.1055
ltibia 55.8906
lfoot -16.3418 3.23825
ltoes -0.416263
